<svg width="78" height="78" viewBox="0 0 78 78" fill="none" xmlns="http://www.w3.org/2000/svg">
<g filter="url(#filter0_d)">
<path d="M73.9432 9.8964C73.8055 9.47516 73.4416 9.16727 73.0017 9.10301L68.8227 8.49515L66.9525 4.70812C66.5606 3.91008 65.2527 3.91008 64.8607 4.70812L62.9905 8.49515L58.8114 9.10315C58.3715 9.16727 58.0076 9.47421 57.8687 9.89654C57.7322 10.3189 57.8453 10.7832 58.1638 11.0924L61.1891 14.0407L60.4751 18.2034C60.4005 18.6409 60.5801 19.0831 60.9383 19.3445C61.3012 19.6082 61.7748 19.6408 62.168 19.4331L65.9061 17.4672L69.6441 19.4331C69.8145 19.5229 70.0024 19.5672 70.1879 19.5672C70.4293 19.5672 70.6709 19.4926 70.874 19.3444C71.2333 19.0831 71.4129 18.6408 71.3372 18.2033L70.6232 14.0405L73.6484 11.0923C73.9653 10.7819 74.0798 10.3187 73.9432 9.8964ZM68.5556 12.7991C68.2815 13.0663 68.1554 13.4536 68.2207 13.8316L68.6384 16.2688L66.4498 15.1185C66.2795 15.0286 66.0928 14.9843 65.9061 14.9843C65.7194 14.9843 65.5339 15.0286 65.3623 15.1185L63.1736 16.2688L63.5912 13.8316C63.6566 13.4536 63.5305 13.0675 63.2564 12.7991L61.4842 11.0725L63.932 10.7166C64.3123 10.6618 64.6402 10.4226 64.8105 10.0784L65.9048 7.86172L66.9991 10.0784C67.1695 10.4225 67.4974 10.6618 67.8777 10.7166L70.3254 11.0725L68.5556 12.7991Z" fill="#2196F3"/>
<path d="M61.1669 44.8923H58.8335V47.2257H61.1669V44.8923Z" fill="#2196F3"/>
<path d="M61.1669 49.5591H58.8335V51.8925H61.1669V49.5591Z" fill="#2196F3"/>
<path d="M63.5004 47.2257H61.167V49.5591H63.5004V47.2257Z" fill="#2196F3"/>
<path d="M58.8337 47.2257H56.5002V49.5591H58.8337V47.2257Z" fill="#2196F3"/>
<path d="M53.0001 57.7259H50.6667V60.0593H53.0001V57.7259Z" fill="#2196F3"/>
<path d="M53.0001 62.3926H50.6667V64.726H53.0001V62.3926Z" fill="#2196F3"/>
<path d="M55.3337 60.0593H53.0002V62.3927H55.3337V60.0593Z" fill="#2196F3"/>
<path d="M50.6669 60.0593H48.3335V62.3927H50.6669V60.0593Z" fill="#2196F3"/>
<path d="M38.9999 53.0592H36.6665V55.3926H38.9999V53.0592Z" fill="#2196F3"/>
<path d="M38.9999 57.7259H36.6665V60.0593H38.9999V57.7259Z" fill="#2196F3"/>
<path d="M41.3334 55.3925H39V57.7259H41.3334V55.3925Z" fill="#2196F3"/>
<path d="M36.6667 55.3925H34.3333V57.7259H36.6667V55.3925Z" fill="#2196F3"/>
<path d="M16.8329 13.3918H14.4995V15.7252H16.8329V13.3918Z" fill="#2196F3"/>
<path d="M16.8329 18.0587H14.4995V20.3921H16.8329V18.0587Z" fill="#2196F3"/>
<path d="M19.1664 15.7253H16.833V18.0587H19.1664V15.7253Z" fill="#2196F3"/>
<path d="M14.4997 15.7253H12.1663V18.0587H14.4997V15.7253Z" fill="#2196F3"/>
<path d="M58.0635 30.9738C57.4347 30.1256 56.5119 29.5797 55.4642 29.4326C54.4118 29.2833 53.3734 29.5597 52.5334 30.2026L49.7952 32.3014L49.794 32.3026L45.6428 35.4025L42.6724 34.2195C47.9691 31.843 51.6711 26.545 51.6711 20.3942C51.6711 12.0314 44.8401 5.22739 36.4436 5.22739C28.047 5.22739 21.2161 12.0314 21.2161 20.3942C21.2161 23.4253 22.1226 26.244 23.6662 28.6158L17.6204 28.5633C17.6168 28.5633 17.6134 28.5633 17.6099 28.5633C17.5911 28.5633 17.5761 28.5726 17.5586 28.5738C17.4431 28.5785 17.3298 28.6019 17.2191 28.6415C17.1911 28.652 17.162 28.6579 17.1352 28.6706C17.1212 28.6765 17.1071 28.6776 17.0932 28.6846L10.0207 32.1764C10.0195 32.1764 10.0184 32.1764 10.0184 32.1775L5.8766 34.1693C5.83107 34.1891 5.78445 34.2159 5.73892 34.2463C4.08802 35.3452 3.52569 37.5036 4.42996 39.2676C4.91176 40.2056 5.73195 40.8964 6.73999 41.2125C7.12856 41.3337 7.52518 41.3933 7.91949 41.3933C8.55305 41.3933 9.18074 41.2382 9.75578 40.9314L12.7915 39.3167L17.7441 36.7593L20.7122 36.7418L8.80844 48.5884C8.80735 48.5896 8.80612 48.5896 8.80489 48.5907L5.87647 51.5074C5.18466 52.1958 4.8043 53.1092 4.8043 54.0835C4.8043 55.0565 5.18466 55.9723 5.87647 56.6619C6.587 57.3689 7.52149 57.7236 8.45598 57.7236C9.3917 57.7236 10.325 57.3689 11.0378 56.6619L13.9125 53.7988L17.7206 50.9556L19.6912 52.9179L15.8375 56.7552C15.8364 56.7564 15.8352 56.7564 15.834 56.7575L12.9056 59.6741C12.2138 60.3625 11.8334 61.276 11.8334 62.2502C11.8334 63.2233 12.2138 64.139 12.9056 64.8287C13.6161 65.5356 14.5518 65.8903 15.4863 65.8903C16.4208 65.8903 17.3565 65.5356 18.0681 64.8287L20.9977 61.912L25.6842 57.2453C25.6854 57.2441 25.6854 57.243 25.6865 57.2417L27.8951 55.0542L27.8869 55.046C27.9008 55.0321 27.9207 55.0273 27.9347 55.0122L39.2353 42.6349L46.8281 43.7153C46.8829 43.7235 46.9377 43.7269 46.9925 43.7269C47.1338 43.7269 47.2702 43.6931 47.402 43.6429C47.4406 43.629 47.4743 43.6103 47.5106 43.5917C47.5526 43.5706 47.5968 43.559 47.6366 43.5322L54.6659 38.8655C54.6916 38.848 54.7055 38.82 54.73 38.8014C54.758 38.7792 54.793 38.7699 54.8186 38.7453L57.5999 36.1401C59.0471 34.7841 59.2466 32.5628 58.0635 30.9738ZM8.66024 38.8722C8.28111 39.0752 7.85058 39.116 7.43878 38.9854C7.03039 38.8583 6.69912 38.5793 6.50538 38.2025C6.15305 37.5165 6.35718 36.6811 6.97433 36.2297L9.84793 34.8471L10.5397 36.869L10.8303 37.7183L8.66024 38.8722ZM16.3102 34.8741L12.9233 36.6241L12.3646 34.9907L11.9633 33.817L16.3967 31.6282L16.3102 34.8741ZM49.3402 20.3919C49.3402 22.4009 48.8607 24.2957 48.03 25.9908L38.8832 21.8362C38.7875 20.5821 38.1366 19.4842 37.1589 18.8005L40.3614 8.16853C45.5626 9.82298 49.3402 14.6752 49.3402 20.3919ZM23.5519 20.3919C23.5519 13.3159 29.3363 7.55834 36.446 7.55834C36.9991 7.55834 37.5403 7.60496 38.0759 7.67264L34.9433 18.0714C34.9014 18.0701 34.8617 18.0585 34.8185 18.0585C32.5597 18.0585 30.7222 19.8902 30.7222 22.1419C30.7222 24.3936 32.5597 26.2254 34.8185 26.2254C36.3375 26.2254 37.65 25.3866 38.3582 24.1591L46.8073 27.9976C44.4564 31.1616 40.6938 33.2255 36.4459 33.2255C29.3363 33.2255 23.5519 27.4679 23.5519 20.3919ZM36.5814 22.1419C36.5814 23.1068 35.7903 23.892 34.8185 23.892C33.8467 23.892 33.0556 23.1068 33.0556 22.1419C33.0556 21.1771 33.8467 20.3919 34.8185 20.3919C35.7903 20.3919 36.5814 21.1771 36.5814 22.1419ZM9.39183 55.0075C8.87503 55.5196 8.03843 55.5185 7.52286 55.0087C7.2743 54.7601 7.13785 54.4324 7.13785 54.0835C7.13785 53.7358 7.2743 53.408 7.52286 53.1619L9.6274 51.0652L11.4894 52.9192L9.39183 55.0075ZM16.4222 63.1743C15.9054 63.6865 15.0677 63.6877 14.552 63.1756C14.3034 62.927 14.1669 62.5993 14.1669 62.2504C14.1669 61.9027 14.3034 61.5748 14.552 61.3287L16.6579 59.231L17.5388 60.1073L18.5211 61.085L16.4222 63.1743ZM24.0383 55.5862C24.0371 55.5873 24.036 55.5873 24.0348 55.5885L20.1742 59.4386L19.2933 58.5623L18.311 57.5846L22.168 53.7451C22.168 53.7451 22.168 53.7451 22.168 53.744C22.1692 53.7428 22.1703 53.7428 22.1715 53.7417C22.259 53.6542 22.3139 53.5492 22.3676 53.4454C22.3828 53.4151 22.4119 53.3894 22.4248 53.3579C22.461 53.2681 22.4667 53.1713 22.4808 53.0767C22.4878 53.0229 22.5112 52.9729 22.5112 52.9179C22.5112 52.8397 22.4831 52.764 22.4669 52.6869C22.4529 52.6169 22.4529 52.5457 22.426 52.4781C22.3817 52.3685 22.3058 52.2717 22.2265 52.1771C22.2044 52.1514 22.1962 52.1187 22.1717 52.0942C22.1717 52.0942 22.1717 52.0942 22.1705 52.0942C22.1692 52.0931 22.1692 52.0906 22.1681 52.0896L18.6529 48.5895C18.6156 48.5522 18.5677 48.537 18.5257 48.5056C18.464 48.4577 18.4045 48.4134 18.3356 48.3795C18.2691 48.3468 18.2014 48.327 18.1314 48.3083C18.0568 48.2872 17.9845 48.2709 17.9063 48.2651C17.835 48.2604 17.7686 48.2674 17.6975 48.2756C17.6193 48.2849 17.5459 48.2954 17.47 48.3199C17.3964 48.3433 17.3312 48.3794 17.2635 48.4179C17.2203 48.4424 17.1714 48.4506 17.1305 48.4809L13.2513 51.3767L11.2808 49.4143L16.5285 44.1946L26.0674 53.576L24.0383 55.5862ZM38.9544 40.2372C38.9207 40.2326 38.8891 40.2454 38.8553 40.2431C38.7701 40.2385 38.6885 40.2443 38.6034 40.2583C38.5369 40.2699 38.4739 40.2828 38.4108 40.3049C38.3362 40.3306 38.2685 40.3656 38.1996 40.4076C38.1343 40.4472 38.0748 40.4892 38.0176 40.5417C37.9896 40.5662 37.9558 40.5779 37.9301 40.6058L27.6527 51.8621L18.185 42.5507L24.3825 36.3859C24.8387 35.9309 24.841 35.1924 24.386 34.735C24.1562 34.5052 23.854 34.392 23.5519 34.3932V34.3921L18.6984 34.4213L18.7591 30.9049L25.5492 30.9633C28.3166 33.7937 32.176 35.5589 36.446 35.5589C37.4027 35.5589 38.3361 35.4598 39.2448 35.2905C39.3323 35.3605 39.4186 35.4318 39.5284 35.4761L44.7995 37.5761L45.1331 39.2351L45.5228 41.1717L38.9544 40.2372ZM47.7944 40.6269L47.1096 37.219L50.2736 34.8564L51.102 35.9554L52.3445 37.6051L47.7944 40.6269ZM56.0055 34.4341L54.1726 36.1515L52.1356 33.4471L53.9544 32.053C54.2938 31.7917 54.7221 31.6855 55.1421 31.7403C55.5644 31.7998 55.9378 32.0203 56.1921 32.3621C56.6658 33.0003 56.5853 33.8905 56.0055 34.4341Z" fill="#212121"/>
<path d="M33.7547 40.5651L29.0669 35.8984C28.6131 35.4446 27.8757 35.4446 27.4207 35.8984L22.7341 40.5651C22.5148 40.7856 22.3911 41.0819 22.3911 41.3922C22.3911 41.7026 22.5136 42.0001 22.7341 42.2194L27.4207 46.8861C27.6482 47.1124 27.9469 47.2256 28.2444 47.2256C28.5419 47.2256 28.8405 47.1124 29.0669 46.8861L33.7547 42.2194C33.974 42.0001 34.0988 41.7026 34.0988 41.3922C34.0988 41.0819 33.9751 40.7844 33.7547 40.5651ZM28.2444 44.4128L25.211 41.3922L28.2444 38.3717L31.2789 41.3922L28.2444 44.4128Z" fill="#212121"/>
<path d="M41.5467 11.0923L40.9832 13.3581C41.1383 13.3966 44.7843 14.3463 44.7843 18.0587H47.1177C47.1175 13.6461 43.4741 11.5718 41.5467 11.0923Z" fill="#212121"/>
<path d="M47.1178 20.3919H44.7844V22.7253H47.1178V20.3919Z" fill="#212121"/>
<rect x="4.5" y="0.5" width="69" height="69" stroke="white"/>
</g>
<defs>
<filter id="filter0_d" x="0" y="0" width="78" height="78" filterUnits="userSpaceOnUse" color-interpolation-filters="sRGB">
<feFlood flood-opacity="0" result="BackgroundImageFix"/>
<feColorMatrix in="SourceAlpha" type="matrix" values="0 0 0 0 0 0 0 0 0 0 0 0 0 0 0 0 0 0 127 0"/>
<feOffset dy="4"/>
<feGaussianBlur stdDeviation="2"/>
<feColorMatrix type="matrix" values="0 0 0 0 0 0 0 0 0 0 0 0 0 0 0 0 0 0 0.25 0"/>
<feBlend mode="normal" in2="BackgroundImageFix" result="effect1_dropShadow"/>
<feBlend mode="normal" in="SourceGraphic" in2="effect1_dropShadow" result="shape"/>
</filter>
</defs>
</svg>
